<?xml version="1.0" encoding="utf-8"?>
<!-- Generator: Adobe Illustrator 25.3.1, SVG Export Plug-In . SVG Version: 6.00 Build 0)  -->
<svg version="1.1" id="icon" xmlns="http://www.w3.org/2000/svg" xmlns:xlink="http://www.w3.org/1999/xlink" x="0px" y="0px"
	 width="512px" height="512px" viewBox="0 0 512 512" enable-background="new 0 0 512 512" xml:space="preserve">
<rect id="bounding_box" fill="none" width="512" height="512"/>
<path id="art_layer_-_play_shape" fill="#188038" d="M53.33,437.84v-84.96l10-10V167.44l-10-10V72.57
	c0-39.99,43.29-64.99,77.93-44.99L447.6,210.21c34.63,20,34.63,69.99,0,89.98l-140.84,81.31l-11.39-4.98l-66.8,38.56v11.55
	l-97.31,56.18C96.63,502.83,53.33,477.83,53.33,437.84z"/>
<path fill-rule="evenodd" clip-rule="evenodd" fill="#92FFD7" d="M279.86,227.95c-7.02-40.82-42.42-70.51-83.82-70.51H53.33v195.44
	h101.46l73.77,73.77l78.2-45.14L279.86,227.95z M154.64,183.92c13.46,0,24.43,10.97,24.43,24.57c0,13.46-10.97,24.43-24.43,24.43
	c-13.6,0-24.57-10.97-24.57-24.43C130.07,194.89,141.04,183.92,154.64,183.92z M107.83,279.73c-13.46,0-24.43-10.97-24.43-24.57
	c0-13.46,10.97-24.43,24.43-24.43c13.6,0,24.58,10.97,24.58,24.43C132.41,268.76,121.43,279.73,107.83,279.73z M154.64,326.4
	c-13.6,0-24.57-10.83-24.57-24.43c0-13.46,10.97-24.43,24.57-24.43c13.46,0,24.43,10.97,24.43,24.43
	C179.07,315.57,168.1,326.4,154.64,326.4z M201.89,279.73c-13.6,0-24.57-10.97-24.57-24.57c0-13.46,10.97-24.43,24.57-24.43
	c13.46,0,24.43,10.97,24.43,24.43C226.32,268.76,215.35,279.73,201.89,279.73z"/>
</svg>
